<svg version="1.1" xmlns="http://www.w3.org/2000/svg" style="display: block;" viewBox="0 0 2828 2828" width="2828" height="2828" preserveAspectRatio="none">
<path transform="translate(0,0)" fill="rgb(227,169,26)" d="M 1623.93 1292.92 C 1646.62 1291.7 1674.02 1292.43 1697.06 1292.47 L 1780.54 1472.22 C 1807.99 1414.37 1836.74 1350.95 1862.81 1292.47 C 1873.51 1292.46 1929.47 1290.95 1933.8 1294.7 C 1927.1 1300.41 1901.56 1301.31 1900.95 1315.42 C 1898.54 1371.52 1900.63 1428.83 1900.02 1484.86 C 1899.5 1533.08 1922.12 1512.78 1934.04 1524.33 L 1933.25 1526.88 C 1924.22 1528.06 1833.34 1528.37 1828.73 1526.3 L 1828.8 1524.04 L 1831.54 1522.02 C 1845.53 1520.36 1859.5 1519.04 1861.82 1502.29 C 1863.78 1488.12 1863.1 1473.27 1863.08 1458.96 L 1862.91 1387.07 L 1862.89 1329.3 C 1841 1375.14 1820.71 1422.83 1798.99 1468.84 C 1788.97 1490.07 1779.68 1512.5 1768.82 1533.26 C 1759.07 1515.13 1750.29 1493.25 1741.32 1474.41 C 1718.76 1427.02 1697.97 1376.67 1674.81 1329.76 C 1674.8 1353.61 1671.41 1500.6 1678.12 1511.42 C 1684.59 1521.85 1700.75 1516.75 1707.36 1525.66 L 1705.63 1526.95 C 1691.95 1528.45 1629.37 1528.53 1617.08 1525.46 C 1622.51 1523.07 1627.05 1522.43 1632.85 1521.57 C 1640.24 1520.49 1651.96 1518.25 1655.86 1510.77 C 1661.55 1499.84 1661.72 1328.42 1656.67 1315.8 C 1652.07 1304.32 1638.98 1302.63 1628.91 1298.72 C 1625.22 1297.29 1625.51 1296.49 1623.93 1292.92 z"/>
<path transform="translate(0,0)" fill="rgb(227,169,26)" d="M 386.183 1406.62 C 415.041 1383.28 452.316 1351.38 474.347 1321.38 C 477.64 1316.9 478.21 1313.32 477.074 1307.95 C 472.801 1301.19 465.946 1299.33 458.539 1296.27 L 457.881 1294.52 C 464.972 1290.5 542.291 1291.98 551.586 1295.21 C 542.238 1298.28 526.845 1300.33 519.527 1304.68 C 499.16 1316.81 478.593 1341.15 461.385 1358.39 C 448.495 1371.37 435.16 1383.9 421.404 1395.96 C 455.346 1429.61 490.206 1465.08 524.946 1497.69 C 532.111 1504.02 538.243 1509.4 546.632 1514.22 C 555.04 1519.06 576.656 1520.35 581.705 1525.5 L 580.782 1526.09 L 581.372 1524.33 L 580.351 1526.22 C 573.95 1527.55 553.708 1528.24 547.767 1527.63 C 532.512 1526.06 467.584 1531.07 459.546 1525.22 C 465.334 1518.06 475.478 1522.01 479.874 1510.88 C 478.826 1499.63 455.893 1480.32 446.994 1471.52 L 386.183 1411.43 C 386.133 1434.37 386.128 1459.61 385.962 1482.45 C 385.623 1528.94 401.093 1513.51 428.078 1525.54 C 412.411 1529.03 322.059 1528.23 305.931 1526.21 C 316.167 1520.63 327.649 1522.23 337.98 1517.27 C 341.795 1515.44 345.139 1512.74 346.436 1508.6 C 351.341 1492.92 351.399 1318.93 345.772 1309.81 C 339.335 1299.37 328.874 1301.84 318.848 1298.86 C 314.481 1297.56 314.622 1296.9 312.717 1292.97 C 322.692 1292.57 413.263 1291.84 420.287 1293.23 L 421.066 1295.91 C 417.689 1301.25 399.11 1299.3 392.107 1306.12 C 381.819 1316.13 386.119 1388.29 386.183 1406.62 z"/>
<path transform="translate(0,0)" fill="rgb(227,169,26)" d="M 1222.91 1287.52 C 1235.76 1286.41 1248.7 1287.25 1261.3 1290 C 1274.56 1293 1293.62 1301.92 1307.05 1302.51 C 1314.35 1302.83 1310.72 1287.81 1320.69 1287.19 C 1323.48 1291.7 1327.02 1352.03 1327.63 1360.94 L 1325.83 1362.42 C 1317.59 1355.23 1311.62 1335.22 1302.25 1327.03 C 1244.79 1276.78 1163.92 1299.23 1144.1 1373.59 C 1118.74 1468.8 1201.38 1558.63 1292.76 1503.18 L 1292.75 1430.64 C 1288.64 1405.69 1276.51 1413.96 1258.72 1405.2 L 1259.78 1402.76 C 1268.21 1400.62 1351.97 1400.83 1360.75 1402.26 L 1360.65 1404.85 C 1352.52 1414.76 1330.47 1402.53 1329.79 1437.55 C 1329.34 1460.63 1329.64 1485.21 1329.78 1508.43 C 1305.37 1521.56 1289.5 1527.86 1261.97 1531.87 C 1191.92 1542.08 1104.81 1506.88 1097.64 1426.47 C 1094.84 1393.22 1105.48 1360.24 1127.16 1334.89 C 1152.4 1304.97 1184.62 1290.96 1222.91 1287.52 z"/>
<path transform="translate(0,0)" fill="rgb(227,169,26)" d="M 2239.28 1292.55 L 2308.33 1292.56 L 2460.45 1466.38 L 2460.62 1371.1 C 2460.63 1354.47 2460.83 1337.62 2460.01 1321.06 C 2458.5 1290.59 2436.18 1303.71 2426.78 1296.83 L 2426.91 1293.85 C 2434.17 1290.84 2498.77 1292.7 2510.87 1292.85 L 2512.52 1294.79 L 2511.21 1297.22 C 2495.73 1302.92 2483.58 1291.6 2478.04 1311.08 C 2470.87 1336.26 2480.47 1522.32 2473.76 1530.57 C 2469.6 1529.99 2471.57 1530.64 2468.12 1527.73 L 2302.86 1341.03 L 2302.72 1443.2 C 2302.71 1461.75 2301.79 1483.34 2304.33 1501.59 C 2307.33 1523.23 2326.41 1517.95 2336.86 1524.93 L 2336.99 1526.89 C 2330.56 1528.87 2255.71 1529.55 2252.28 1525.9 C 2254.88 1521.43 2286.75 1520.07 2287.67 1500.95 C 2288.52 1483.29 2287.97 1465.47 2287.96 1447.78 L 2287.85 1326.1 C 2278.62 1312.23 2272.71 1306.15 2255.56 1300.71 C 2250.13 1298.98 2246.94 1299.58 2240.84 1297.27 L 2239.28 1292.55 z"/>
<path transform="translate(0,0)" fill="rgb(227,169,26)" d="M 774.474 1292.95 C 795.181 1291.74 822.757 1292.53 843.977 1292.56 L 996.077 1466.6 L 996.219 1371.02 C 996.232 1352.41 996.898 1333.86 994.871 1315.35 C 993.068 1298.89 976.564 1298.31 963.205 1298.28 L 961.658 1296.05 L 962.287 1293.34 C 964.992 1292.49 983.269 1292.12 986.371 1292.45 C 996.655 1293.56 1042.75 1289.09 1048.09 1296.53 C 1043.43 1299.59 1026.79 1298.28 1021.49 1300.35 C 1005.44 1306.62 1013.02 1349.71 1011.19 1361.65 C 1008.12 1381.78 1015.78 1517.68 1009.48 1529.72 C 1005.71 1530.3 1007.46 1530.57 1004.23 1528.38 C 950.216 1466.05 893.402 1402.75 838.389 1341.22 L 838.287 1440.29 C 838.279 1457.89 837.848 1477.17 838.799 1494.68 C 840.544 1526.83 862.599 1516.19 872.348 1524.69 L 872.386 1527.14 L 870.649 1528.11 C 859.545 1528.1 794.989 1529.36 788.454 1526.97 L 787.764 1524.39 C 791.072 1518.51 819.708 1526.13 822.238 1501.81 C 824.344 1481.57 823.495 1461.73 823.493 1441.43 L 823.384 1326.08 C 808.627 1303.37 800.671 1303.56 776.622 1297.55 L 774.474 1292.95 z"/>
<path transform="translate(0,0)" fill="rgb(227,169,26)" d="M 1989.49 1292.96 C 2007.09 1291.52 2036 1292.44 2054.41 1292.44 L 2176.49 1292.48 C 2177.26 1303.65 2180.64 1334.57 2177.1 1343.7 L 2174.89 1344.23 C 2169.35 1336.59 2171.12 1325.39 2162 1316.93 C 2145.09 1301.24 2120.88 1306.6 2099.55 1305.95 C 2087.19 1305.57 2073.69 1306.07 2061.12 1306.14 L 2061.12 1397.04 C 2082.71 1397.02 2110.41 1398.8 2131.65 1395.66 C 2153.37 1392.46 2149.95 1368.96 2153.88 1362.6 L 2156.07 1363.31 C 2160.29 1373.34 2159.39 1443.38 2155.98 1454.03 C 2151.21 1442.65 2152.02 1426.52 2144.32 1417.74 C 2135.95 1408.22 2066.38 1408.15 2061.26 1412.61 L 2061.12 1417.8 C 2061.04 1434.21 2057.72 1501.83 2066.34 1511.26 C 2075.88 1515.51 2081.43 1514.44 2091.08 1514.24 C 2128.94 1513.44 2163.36 1522.19 2184.95 1482.12 C 2187.67 1477.09 2189.87 1469.48 2195.81 1468.53 L 2197.69 1469.99 C 2195.26 1482.04 2183.72 1514.46 2179.4 1527.61 C 2159.65 1527.61 1995.83 1529.02 1991.18 1525.63 C 1993.1 1523.45 1993.68 1523.32 1996.51 1522.44 C 2004.93 1519.84 2018.05 1517.12 2022.02 1508.33 C 2026.38 1498.66 2025.76 1319.39 2021.3 1310.55 C 2015.95 1299.95 2003.65 1301.67 1994.2 1298.31 C 1990.81 1297.11 1990.94 1296.09 1989.49 1292.96 z"/>
<path transform="translate(0,0)" fill="rgb(227,169,26)" d="M 1472 1287.42 C 1482.42 1286.82 1487.84 1286.95 1498.39 1289.14 C 1509.41 1291.42 1521.55 1300.46 1532.29 1298.79 C 1543.18 1297.1 1545.91 1289.03 1551.72 1280.25 C 1553.67 1292.01 1553.85 1354.07 1550.96 1364.56 L 1549.33 1365.36 C 1537.49 1349.28 1541.02 1327.34 1516.94 1310.81 C 1487.57 1290.64 1438.9 1300.08 1443.97 1341.57 C 1445.92 1357.55 1467.25 1369.78 1479.58 1377.03 C 1509.04 1396.54 1559.77 1418.27 1565.93 1457.79 C 1572.61 1500.78 1540.11 1526.53 1502.35 1532.8 C 1493.34 1533.07 1489.1 1533.05 1479.49 1531.8 C 1463.92 1529.77 1446.17 1520.93 1431.04 1521.78 C 1426.93 1522.01 1423.43 1527.12 1421.38 1530.26 L 1415.05 1539.9 C 1413.36 1524.42 1412.89 1459.53 1415.99 1445.69 C 1428.41 1470.19 1424.08 1487.96 1450.63 1508.48 C 1494.12 1542.08 1565.16 1499.34 1517.44 1450.71 C 1483.16 1415.77 1397.74 1399.81 1414.43 1334.16 C 1421.88 1304.85 1444.84 1291.21 1472 1287.42 z"/>
<path transform="translate(0,0)" fill="rgb(227,169,26)" fill-opacity="0.92549" d="M 639.906 1287.07 C 656.172 1286.95 672.32 1286.66 688.574 1287.41 C 689.383 1302.21 688.717 1323.1 688.666 1338.33 L 696.49 1347.13 C 696.404 1370.42 697.651 1520.94 693.412 1529.76 C 683.586 1537.41 670.476 1535.8 658.787 1535.88 C 629.395 1536.11 629.292 1532.39 629.891 1505.83 C 629.966 1485.63 627.845 1353.71 632.674 1344.89 C 640.243 1331.09 665.679 1343.12 677.398 1338.1 C 680.524 1336.76 680.798 1335.13 681.72 1332.23 C 680.702 1326.66 675.615 1321.29 671.969 1316.7 C 672.367 1310.86 675.872 1308.49 680.305 1303.7 C 681.205 1298.58 681.497 1301.09 678.667 1296.06 C 671.309 1294.39 655.555 1295.06 647.289 1295.14 C 647.461 1305.51 648.731 1319.2 643.932 1328.33 L 641.884 1328.31 C 636.72 1318.27 638 1298.08 639.906 1287.07 z M 687.777 1383.39 C 675.998 1383.26 662.146 1382.73 650.605 1383.93 C 647.265 1379.98 647.447 1380.3 646.985 1375.13 C 659.131 1374.43 675.507 1374.84 688.104 1374.66 C 688.122 1365.62 688.07 1356.57 687.948 1347.53 C 673.448 1346.83 656.396 1346.97 641.727 1346.8 C 640.432 1348.31 639.137 1349.95 639.1 1352.08 C 638.117 1408.48 637.888 1465.08 638.37 1521.5 C 638.396 1524.61 639.833 1525.71 642.108 1527.29 C 654.072 1526 674.819 1529.05 685.544 1525.23 C 689.752 1515 686.837 1434.65 686.428 1419.68 C 686.142 1409.23 688.15 1394.46 687.777 1383.39 z"/>
<path transform="translate(0,0)" fill="rgb(227,169,26)" fill-opacity="0.0705882" d="M 642.108 1527.29 C 639.833 1525.71 638.396 1524.61 638.37 1521.5 C 637.888 1465.08 638.117 1408.48 639.1 1352.08 C 639.137 1349.95 640.432 1348.31 641.727 1346.8 C 643.398 1356.47 641.174 1365.91 643.32 1374.5 L 646.985 1375.13 C 647.447 1380.3 647.265 1379.98 650.605 1383.93 C 647.539 1383.84 646.472 1383.81 643.384 1384.02 C 640.908 1387.98 641.314 1390.93 643.245 1395.27 C 648.797 1393.48 646.166 1393.46 651.399 1394.71 C 657.485 1400.37 659.301 1405.78 655.018 1413.22 C 649.671 1416.37 648.741 1414.57 643.845 1411.08 C 642.116 1413.92 641.856 1420.56 643.177 1423.41 C 645.373 1421.92 647.134 1419.83 649.838 1420.32 C 652.33 1420.77 651.395 1420.46 653.546 1421.9 C 650.257 1423.64 647.974 1423.91 647.247 1427.45 C 645.308 1436.9 644.54 1474.13 648.022 1481.38 L 651.587 1484.13 C 648.618 1483.65 647.447 1483.6 644.7 1482.43 L 642.618 1483.42 C 641.517 1496.61 642.051 1513.78 642.108 1527.29 z"/>
<path transform="translate(0,0)" fill="rgb(227,169,26)" fill-opacity="0.941176" d="M 651.587 1484.13 L 648.022 1481.38 C 644.54 1474.13 645.308 1436.9 647.247 1427.45 C 647.974 1423.91 650.257 1423.64 653.546 1421.9 C 656.656 1431.34 657.767 1476.74 651.587 1484.13 z"/>
<path transform="translate(0,0)" fill="rgb(227,169,26)" d="M 1560.88 1586.69 L 1586.14 1586.68 L 1628.32 1703.41 C 1641.85 1671.62 1658.35 1620.55 1670.55 1586.69 L 1695.7 1586.69 L 1700.98 1720.7 L 1682.19 1720.7 C 1681.55 1692.82 1680.34 1664.57 1679.39 1636.66 L 1678.55 1607 L 1637.47 1720.7 L 1617.09 1720.7 L 1576.3 1607.74 C 1574.02 1643.47 1573.63 1684.59 1572.49 1720.7 L 1556.24 1720.62 C 1555.81 1680.28 1559.27 1627.91 1560.88 1586.69 z"/>
<path transform="translate(0,0)" fill="rgb(227,169,26)" d="M 1125.46 1586.44 C 1150.92 1586.26 1189.87 1581.19 1202.47 1608.46 C 1213.44 1632.21 1201.62 1652.89 1179.8 1663.3 C 1192.56 1679.45 1206.22 1702.98 1216.92 1720.7 C 1209.6 1720.92 1199.08 1722.98 1194.63 1717.06 C 1184.79 1699.91 1174.46 1682.31 1162.98 1666.24 L 1141.8 1666.24 L 1141.8 1720.62 L 1125.45 1720.71 L 1125.46 1586.44 z M 1141.8 1651.71 C 1156.16 1651.86 1169.63 1653.67 1181.51 1644.94 C 1190 1633.56 1193.62 1617.66 1180.49 1608.25 C 1168.41 1599.6 1155.82 1600.75 1141.83 1601 L 1141.8 1651.71 z"/>
<path transform="translate(0,0)" fill="rgb(227,169,26)" d="M 852.746 1586.44 C 873.853 1586.16 903.844 1582.7 920.698 1596.99 C 944.679 1617.31 934.499 1659.17 903.931 1666.87 C 897.189 1668.57 892.321 1668.71 885.476 1668.94 C 879.747 1668.86 874.8 1668.19 869.698 1670.46 C 868.069 1677.97 868.97 1710.91 869.052 1720.65 L 852.745 1720.69 L 852.746 1586.44 z M 869.058 1654.15 C 882.88 1654.27 896.832 1655.89 908.555 1647.93 C 917.942 1635.11 921.679 1617 906.349 1607.1 C 894.675 1599.57 882.249 1600.73 869.084 1601.01 L 869.058 1654.15 z"/>
<path transform="translate(0,0)" fill="rgb(227,169,26)" d="M 1478.04 1586.46 C 1482.97 1586.26 1488.35 1585.52 1492.73 1587.39 C 1495.64 1592.29 1494.54 1593.01 1494.59 1599.73 C 1494.47 1627.56 1496.79 1661.16 1493.2 1688.54 C 1490.13 1711.96 1467.69 1722.97 1446.04 1723.32 C 1408.63 1723.92 1391.52 1702.41 1394.08 1665.93 C 1394.79 1640.32 1394.37 1612.15 1394.44 1586.44 L 1410.29 1586.44 C 1410.53 1608.99 1410.12 1632.42 1409.87 1655.14 C 1408.72 1679.69 1410.62 1708.32 1442.25 1709.37 C 1486.72 1710.84 1477.74 1663.91 1478.22 1634.48 C 1478.48 1618.12 1478.1 1602.37 1478.04 1586.46 z"/>
<path transform="translate(0,0)" fill="rgb(227,169,26)" d="M 987.776 1586.44 L 1066.53 1586.44 L 1062.67 1601 L 1004.15 1601 L 1004.15 1645.62 C 1012.8 1645.61 1055.57 1644.58 1059.5 1647.51 C 1059.52 1648.43 1059.53 1651.97 1059.49 1652.58 C 1058.45 1669.76 1015.41 1652.57 1004.49 1661.94 L 1004.15 1667.73 L 1004.15 1706.12 L 1069.98 1706.13 C 1070.1 1711.31 1070.66 1715.21 1068.83 1720.03 C 1053.67 1722.04 1005.33 1720.75 987.772 1720.7 L 987.776 1586.44 z"/>
<path transform="translate(0,0)" fill="rgb(227,169,26)" d="M 1763.36 1586.44 L 1841.62 1586.44 L 1838.14 1601.01 L 1779.69 1601.01 L 1779.69 1645.62 L 1834.86 1645.63 C 1834.92 1650.31 1834.66 1655.08 1834.48 1659.76 C 1823.62 1659.84 1788.04 1658.17 1780.37 1661.06 L 1779.69 1664.97 L 1779.69 1706.12 C 1791.3 1706.04 1837.69 1703.9 1845.01 1709.21 C 1845.57 1714.11 1845.36 1714.25 1844.52 1718.9 C 1837.83 1722.4 1776.19 1720.75 1763.36 1720.7 L 1763.36 1586.44 z"/>
<path transform="translate(0,0)" fill="rgb(227,169,26)" d="M 1932.57 1584.49 C 1948.84 1583.6 1954.93 1585.2 1970.83 1589.52 L 1965.76 1602.98 C 1948.69 1598.34 1932.13 1594.35 1917.68 1607.98 C 1902.22 1622.1 1927.64 1639.43 1939.66 1645.28 C 1965.95 1658.09 1993.38 1681.83 1967.98 1711.22 C 1958.87 1721.76 1943.97 1723.08 1930.56 1723.29 C 1914.94 1722.99 1908.29 1721.25 1893.7 1715.95 L 1898.48 1702.37 C 1915.17 1708.36 1948.93 1715.93 1957.83 1696.97 C 1973.28 1664.03 1900.2 1658.57 1897.17 1628.19 C 1894.46 1600.92 1909.17 1588.81 1932.57 1584.49 z"/>
<path transform="translate(0,0)" fill="rgb(227,169,26)" d="M 1265.73 1586.44 L 1341.16 1586.44 L 1337.5 1601 L 1282.15 1601.01 L 1282.15 1645.63 C 1290.37 1645.57 1328.26 1644.61 1333.48 1646.74 C 1334.77 1652.16 1334.21 1654.08 1333.63 1659.76 L 1282.15 1659.76 L 1282.15 1720.67 L 1265.74 1720.7 L 1265.73 1586.44 z"/>
</svg>